<svg width="100%" height="100%" viewBox="0 0 64 64" fill="none" xmlns="http://www.w3.org/2000/svg">
<path d="M63.9527 33.7444C64.0694 31.5933 63.9701 29.4326 63.6547 27.2977L27.2977 63.6547C29.4326 63.9701 31.5933 64.0694 33.7444 63.9527L63.9527 33.7444Z" fill="#d3ffc3"/>
<path d="M40.6634 62.8109C45.7774 61.378 50.6047 58.6502 54.6274 54.6274C58.6502 50.6047 61.378 45.7774 62.8109 40.6634L40.6634 62.8109Z" fill="#d3ffc3"/>
<path d="M60.9824 18.4139C61.6191 19.7725 62.1551 21.1666 62.5903 22.5849L22.5849 62.5903C21.1666 62.1551 19.7725 61.6191 18.4139 60.9824L60.9824 18.4139Z" fill="#d3ffc3"/>
<path d="M58.542 14.1142C57.7817 12.9885 56.9419 11.9006 56.0227 10.8581L10.8581 56.0227C11.9006 56.9419 12.9885 57.7817 14.1142 58.542L58.542 14.1142Z" fill="#d3ffc3"/>
<path d="M49.875 5.45068C51.0016 6.21092 52.0904 7.0507 53.1336 7.97L7.97 53.1336C7.05069 52.0904 6.21092 51.0016 5.45068 49.875L49.875 5.45068Z" fill="#d3ffc3"/>
<path d="M45.5738 3.01189C44.216 2.37623 42.8229 1.84119 41.4055 1.40677L1.40677 41.4055C1.84119 42.8229 2.37623 44.216 3.01189 45.5738L45.5738 3.01189Z" fill="#d3ffc3"/>
<path d="M30.2496 0.0476136C32.399 -0.0694147 34.558 0.0292878 36.6913 0.343722L0.343722 36.6913C0.029287 34.558 -0.0694152 32.399 0.0476144 30.2496L30.2496 0.0476136Z" fill="#d3ffc3"/>
<path d="M23.3286 1.19136C18.2177 2.62484 13.3933 5.35192 9.37258 9.37258C5.35192 13.3933 2.62484 18.2177 1.19136 23.3286L23.3286 1.19136Z" fill="#d3ffc3"/>
</svg>