<svg class="icon icon-account" viewBox="0 0 24 24" fill="none" xmlns="http://www.w3.org/2000/svg">
<path fill-rule="evenodd" clip-rule="evenodd" d="M10.1002 2.18153C9.68786 2.29493 8.93916 2.59191 8.43629 2.84139C7.71054 3.20151 7.49607 3.35874 7.3964 3.60413C7.32738 3.77413 7.12212 4.07407 6.94041 4.27063C6.47981 4.76867 6.24861 5.52518 6.25222 6.52248C6.25733 7.95816 6.7647 9.03045 7.82604 9.84846C8.59858 10.4439 9.46608 10.7066 10.6493 10.7035C12.3521 10.6988 13.6012 10.1773 14.7641 8.98571C15.549 8.18129 15.9482 7.46002 16.113 6.54802C16.4111 4.89811 15.4289 3.16892 13.7343 2.36021C13.1284 2.07109 12.9502 2.03564 11.9553 2.00703C11.087 1.98211 10.6888 2.0196 10.1002 2.18153ZM13.0941 4.17736C14.4001 4.9023 14.6194 6.40939 13.5852 7.5535C13.0604 8.13419 11.975 8.67984 11.0581 8.82388C10.4533 8.91889 10.2812 8.90663 9.70579 8.72765C9.33685 8.61282 8.90941 8.39419 8.73511 8.23104C8.1489 7.68223 7.75732 6.05683 8.12175 5.68506C8.2058 5.59935 8.48027 5.50557 8.73151 5.47665C9.27134 5.41464 9.50554 5.19081 9.58859 4.65772C9.64539 4.2929 9.67864 4.26399 10.299 4.04271C11.2383 3.70742 12.3434 3.76064 13.0941 4.17736ZM11.2003 11.6224C7.43857 12.3152 5.10764 13.9518 4.37146 16.4172C4.09709 17.3357 4.14918 18.8215 4.48276 19.5971C4.64574 19.976 4.66948 20.1166 4.57572 20.1485C4.5066 20.172 4.34051 20.3029 4.20668 20.4394C4.00192 20.6482 3.97227 20.7548 4.01956 21.1136C4.08076 21.5795 4.4507 22 4.7992 22C4.90879 22 5.81907 21.8417 6.8221 21.648C10.3695 20.9633 11.8531 20.8373 16.443 20.8309L20.5337 20.8251L20.7755 20.5385C21.0777 20.1802 21.0767 20.0615 20.7612 18.9041C20.3501 17.3954 20.0219 16.5005 19.4797 15.4106C19.0654 14.5776 18.8128 14.2248 18.1126 13.5004C17.2045 12.561 16.3727 12.0544 15.1919 11.7218C14.4326 11.5079 12.1328 11.4506 11.2003 11.6224ZM14.5805 13.5635C15.9771 13.9426 17.0534 14.8938 17.8285 16.4341C18.2279 17.2277 18.8132 18.7023 18.8135 18.9157C18.8135 18.9545 17.7205 18.9712 16.3843 18.9528C13.2605 18.9098 10.4283 19.1235 7.7443 19.6049C6.56185 19.817 6.62186 19.839 6.26243 19.0628C5.62032 17.6764 5.91493 16.4567 7.13605 15.4459C7.45199 15.1844 7.96829 14.8303 8.28333 14.6591C8.96922 14.2862 10.4855 13.7561 11.3947 13.5712C12.2806 13.391 13.9308 13.387 14.5805 13.5635Z" fill="#c1c1c1"/>
</svg>